<svg width="125" height="64" viewBox="0 0 125 64" fill="none" xmlns="http://www.w3.org/2000/svg">
<g id="logo / primary">
<path id="Vector" d="M114.655 5.16463C114.655 2.05588 116.791 0 119.835 0C122.879 0 124.984 2.05588 124.984 5.16463C124.984 8.27339 122.847 10.3293 119.844 10.3293C116.841 10.3293 114.655 8.27339 114.655 5.16463Z" fill="#FA84D4"/>
<path id="p" d="M19.8054 17.8625C22.9194 17.8625 25.7429 18.5899 28.2756 20.0447C30.8499 21.4579 32.8637 23.4739 34.3169 26.0925C35.7701 28.6695 36.4967 31.683 36.4967 35.1329C36.4967 38.5828 35.7701 41.6171 34.3169 44.2357C32.8637 46.8127 30.8499 48.8286 28.2756 50.2834C25.7429 51.6966 22.9194 52.4032 19.8054 52.4032C15.5288 52.4032 12.1656 51.0524 9.71585 48.3506V63.9999H0V20.5431C0 19.3382 0.976833 18.3613 2.18182 18.3613H9.27989V22.2269C11.6881 19.3173 15.1966 17.8625 19.8054 17.8625ZM18.1238 44.4227C20.615 44.4227 22.6496 43.5914 24.2274 41.9288C25.8467 40.2246 26.6563 37.9593 26.6563 35.1329C26.6563 32.3065 25.8467 30.0619 24.2274 28.3993C22.6496 26.6952 20.615 25.8431 18.1238 25.8431C15.6326 25.8431 13.5773 26.6952 11.958 28.3993C10.3802 30.0619 9.59129 32.3065 9.59129 35.1329C9.59129 37.9593 10.3802 40.2246 11.958 41.9288C13.5773 43.5914 15.6326 44.4227 18.1238 44.4227Z" fill="#623CEA"/>
<path id="l" d="M57.2307 51.9493C53.419 51.9493 50.4451 50.9503 48.3088 48.9524C46.1726 46.9129 45.1045 44.0409 45.1045 40.3364V7.30511C45.1045 6.10012 46.0813 5.12329 47.2863 5.12329H54.906V39.7745C54.906 41.1897 55.262 42.2927 55.9741 43.0836C56.7281 43.8328 57.7752 44.2074 59.1156 44.2074C59.6182 44.2074 60.1209 44.1449 60.6235 44.0201C61.1681 43.8952 61.5869 43.7495 61.8801 43.583L62.3199 51.1376C60.6864 51.6787 58.9899 51.9493 57.2307 51.9493Z" fill="#623CEA"/>
<path id="u" d="M105.014 17.8625V51.4497H95.7575V47.4542C94.4649 48.9109 92.9222 50.0346 91.1293 50.8254C89.3363 51.5745 87.3975 51.9491 85.3126 51.9491C80.8929 51.9491 77.3904 50.6797 74.8052 48.1409C72.2201 45.6021 70.9275 41.8355 70.9275 36.8411V20.0444C70.9275 18.8394 71.9043 17.8625 73.1093 17.8625H80.6844V35.4053C80.6844 40.8158 82.9568 43.5211 87.5017 43.5211C89.8367 43.5211 91.713 42.772 93.1307 41.2736C94.5483 39.7337 95.2572 37.4654 95.2572 34.4688V20.0444C95.2572 18.8394 96.234 17.8625 97.439 17.8625H105.014Z" fill="#623CEA"/>
<path id="i" d="M114.999 20.3887C114.999 19.1837 115.976 18.2069 117.181 18.2069H124.64V51.9492H114.999V20.3887Z" fill="#623CEA"/>
</g>
</svg>
